<svg xmlns="http://www.w3.org/2000/svg" width="30" height="30" viewBox="0 0 30 30">
  <path id="iconfinder_cart-plus_1608607" d="M70.247,280.552c-.007.351,3.583,1.368,3.9,1.368.114,0,2.947-7.513,2.947-7.513a23.83,23.83,0,0,0,5.366,1.473c-.233-.2,1.452-3.3,1.153-3.368l-7.782-2.41C75.835,269.641,72.256,276.3,70.247,280.552Zm12.215-21.818a2.887,2.887,0,0,1,.676-1.928,2.065,2.065,0,0,1,3.263,0,3.089,3.089,0,0,1,0,3.858,2.065,2.065,0,0,1-3.263,0,2.887,2.887,0,0,1-.676-1.929Zm-16.154,0a2.887,2.887,0,0,1,.676-1.928,2.065,2.065,0,0,1,3.263,0,3.089,3.089,0,0,1,0,3.858,2.065,2.065,0,0,1-3.263,0,2.887,2.887,0,0,1-.676-1.929ZM64,281.92V271.009a1.494,1.494,0,0,1,.288-.906,1.078,1.078,0,0,1,.739-.458l18.822-2.6q-.018-.149-.081-.458t-.108-.565a2.718,2.718,0,0,1-.045-.469,4.624,4.624,0,0,1,.433-1.364H67.462a1.033,1.033,0,0,1-.811-.4,1.513,1.513,0,0,1,0-1.918,1.033,1.033,0,0,1,.811-.4H85.923a1.033,1.033,0,0,1,.811.4,1.438,1.438,0,0,1,.343.959,2.677,2.677,0,0,1-.2.842q-.2.543-.532,1.268t-.37.81l1.418,7.792.971,5.336.8,4.411h3.682a1.033,1.033,0,0,1,.811.4,1.514,1.514,0,0,1,0,1.918,1.033,1.033,0,0,1-.811.4H88.231a.961.961,0,0,1-.514-.138,1.2,1.2,0,0,1-.361-.33,1.822,1.822,0,0,1-.234-.522,4.286,4.286,0,0,1-.135-.565q-.036-.234-.1-.629t-.081-.543H65.154a1.033,1.033,0,0,1-.811-.4A1.437,1.437,0,0,1,64,281.92Z" transform="translate(94 286.006) rotate(180)" fill="#0c9c32"/>
</svg>
