<svg xmlns="http://www.w3.org/2000/svg" width="30" height="30" viewBox="0 0 30 30">
  <path id="iconfinder_cart-plus_1608607" d="M85.923,265.545a1.437,1.437,0,0,0-.343-.959,1.033,1.033,0,0,0-.811-.4H82.462v-2.727a1.437,1.437,0,0,0-.343-.959,1.015,1.015,0,0,0-1.623,0,1.437,1.437,0,0,0-.343.959v2.727H77.846a1.033,1.033,0,0,0-.811.4,1.513,1.513,0,0,0,0,1.918,1.852,1.852,0,0,0,.811.4h2.308v2.727a1.437,1.437,0,0,0,.343.959,1.015,1.015,0,0,0,1.623,0,1.437,1.437,0,0,0,.343-.959v-2.727h2.308a1.033,1.033,0,0,0,.811-.4A1.437,1.437,0,0,0,85.923,265.545ZM75.538,283.273a2.886,2.886,0,0,1-.676,1.928,2.065,2.065,0,0,1-3.263,0,3.088,3.088,0,0,1,0-3.857,2.065,2.065,0,0,1,3.263,0A2.886,2.886,0,0,1,75.538,283.273Zm16.154,0a2.886,2.886,0,0,1-.676,1.928,2.065,2.065,0,0,1-3.263,0,3.088,3.088,0,0,1,0-3.857,2.065,2.065,0,0,1,3.263,0A2.886,2.886,0,0,1,91.692,283.273ZM94,260.091V271a1.493,1.493,0,0,1-.288.906,1.078,1.078,0,0,1-.739.458l-18.822,2.6q.018.149.081.458t.108.565a2.718,2.718,0,0,1,.045.469,4.623,4.623,0,0,1-.433,1.364H90.538a1.033,1.033,0,0,1,.811.4,1.513,1.513,0,0,1,0,1.918,1.033,1.033,0,0,1-.811.4H72.077a1.033,1.033,0,0,1-.811-.4,1.437,1.437,0,0,1-.343-.959,2.676,2.676,0,0,1,.2-.842q.2-.543.532-1.268t.37-.81l-1.418-7.79-.971-5.335-.8-4.41H65.154a1.033,1.033,0,0,1-.811-.4,1.513,1.513,0,0,1,0-1.918,1.033,1.033,0,0,1,.811-.4h4.615a.961.961,0,0,1,.514.138,1.205,1.205,0,0,1,.361.33,1.821,1.821,0,0,1,.234.522,4.287,4.287,0,0,1,.135.565q.036.234.1.629t.081.543H92.846a1.033,1.033,0,0,1,.811.4A1.437,1.437,0,0,1,94,260.091Z" transform="translate(-64 -256)" fill="#0c9c32"/>
</svg>
